<svg width="26" height="26" fill="none" xmlns="http://www.w3.org/2000/svg"><path d="M25.613 5.348c-.904.401-1.876.672-2.898.794a5.06 5.06 0 002.22-2.792 10.076 10.076 0 01-3.205 1.224 5.048 5.048 0 00-8.6 4.604A14.332 14.332 0 012.728 3.904a5.044 5.044 0 00-.683 2.537 5.048 5.048 0 002.245 4.202 5.035 5.035 0 01-2.286-.632v.065a5.048 5.048 0 004.049 4.949 5.082 5.082 0 01-2.28.086 5.05 5.05 0 004.715 3.504 10.126 10.126 0 01-6.268 2.161c-.403 0-.805-.023-1.205-.07a14.272 14.272 0 007.735 2.267c9.284 0 14.36-7.69 14.36-14.358 0-.217-.006-.436-.015-.653a10.258 10.258 0 002.516-2.61l.002-.004z" fill="#fff"/></svg>