<svg width="12" height="12" fill="none" xmlns="http://www.w3.org/2000/svg"><g clip-path="url(#clip0_5517_1410)" fill="#4295E4"><path d="M11 4.5H1a.25.25 0 00-.25.25v7c0 .138.112.25.25.25h10a.25.25 0 00.25-.25v-7A.25.25 0 0011 4.5zm-.25 7h-9.5V5h9.5v6.5z"/><path d="M11.5 2.5H.5a.25.25 0 00-.25.25v2c0 .138.112.25.25.25h11a.25.25 0 00.25-.25v-2a.25.25 0 00-.25-.25zm-.25 2H.75V3h10.5v1.5z"/><path d="M6 2.5a.25.25 0 00-.25.25v9a.25.25 0 00.5 0v-9A.25.25 0 006 2.5z"/><path d="M6.255 2.691C6 1.485 4.465.192 3.444.019a1.001 1.001 0 00-.967 1.615l.004.006c.743.949 3.215 1.312 3.495 1.35a.25.25 0 00.279-.3zM2.868 1.323A.492.492 0 012.75 1a.5.5 0 01.605-.49c.75.128 1.881 1.035 2.287 1.92-.87-.161-2.34-.536-2.773-1.107z"/><path d="M8.75 0a.985.985 0 00-.187.018C7.535.192 6.002 1.485 5.745 2.69a.25.25 0 00.278.3c.28-.039 2.752-.402 3.495-1.35l.005-.007A1.001 1.001 0 008.75 0zm.396 1.305l-.015.018c-.432.571-1.902.946-2.773 1.107.407-.886 1.54-1.793 2.295-1.92a.5.5 0 01.493.796z"/></g><defs><clipPath id="clip0_5517_1410"><path fill="#fff" d="M0 0h12v12H0z"/></clipPath></defs></svg>