<svg width="82" height="82" viewBox="0 0 78 72" fill="none" xmlns="http://www.w3.org/2000/svg"><path d="M69.558 29.761a1.12 1.12 0 00-.992-.6H9.437a1.12 1.12 0 00-.991.6L1.048 43.845a1.121 1.121 0 00.993 1.643h6.278v24.728c0 .619.502 1.12 1.12 1.12h59.126a1.12 1.12 0 001.121-1.12V45.488h6.278a1.121 1.121 0 00.993-1.643l-7.399-14.084zm-59.443 1.642h27.027l-6.214 11.843H3.894l6.221-11.843zm.441 14.085h21.045c.417 0 .8-.231.993-.6l5.284-10.058v34.269H10.556V45.487zm56.888 23.609H40.121v-34.27l5.285 10.06c.194.37.576.6.993.6h21.045v23.61zM47.072 43.246l-6.214-11.843h27.03l6.218 11.843H47.072zM39 25.662c6.904 0 12.5-5.596 12.5-12.5S45.904.662 39 .662s-12.5 5.596-12.5 12.5v0c.007 6.9 5.6 12.493 12.5 12.5zm0-22.759c5.666 0 10.258 4.593 10.258 10.259 0 5.665-4.592 10.258-10.258 10.258-5.665 0-10.258-4.592-10.258-10.258C28.748 7.5 33.337 2.91 39 2.903v0z" fill="#4295E4" stroke="#4295E4" stroke-width=".5"/><path d="M40.14 16.284h-5.048a1.121 1.121 0 100 2.242h5.045a4.622 4.622 0 000-9.244H37.8l.779-.779a1.121 1.121 0 10-1.583-1.587l-2.69 2.69a1.12 1.12 0 000 1.586l2.69 2.69a1.121 1.121 0 101.585-1.585l-.78-.78h2.34a2.38 2.38 0 010 4.76v.006z" fill="#4295E4" stroke="#4295E4" stroke-width=".5"/></svg>