<svg width="82" height="82" fill="none" xmlns="http://www.w3.org/2000/svg"><g clip-path="url(#clip0_5502_4101)" fill="#4295E4"><path d="M80.984 43.479a5.18 5.18 0 010-4.957 8.406 8.406 0 00-2.095-10.533 5.183 5.183 0 01-1.897-4.58 8.406 8.406 0 00-5.967-8.929 5.182 5.182 0 01-3.505-3.505 8.405 8.405 0 00-8.929-5.966 5.182 5.182 0 01-4.58-1.897 8.405 8.405 0 00-10.533-2.096 5.183 5.183 0 01-4.957 0 8.406 8.406 0 00-10.533 2.095 5.182 5.182 0 01-4.58 1.897 8.405 8.405 0 00-8.929 5.967 5.182 5.182 0 01-3.505 3.505 8.406 8.406 0 00-5.966 8.929 5.182 5.182 0 01-1.897 4.58A8.406 8.406 0 001.016 38.52a5.182 5.182 0 010 4.957A8.406 8.406 0 003.11 54.011a5.183 5.183 0 011.897 4.58 8.405 8.405 0 005.966 8.929 5.182 5.182 0 013.505 3.505 8.405 8.405 0 008.93 5.966 5.181 5.181 0 014.58 1.897 8.406 8.406 0 0010.533 2.095 5.183 5.183 0 014.956 0 8.403 8.403 0 0010.533-2.095 5.184 5.184 0 014.58-1.897 8.408 8.408 0 008.93-5.966 5.182 5.182 0 013.504-3.505 8.406 8.406 0 005.967-8.93 5.182 5.182 0 011.897-4.58 8.405 8.405 0 002.095-10.531zm-2.816 1.527a5.201 5.201 0 01-1.297 6.517 8.375 8.375 0 00-3.065 7.402 5.201 5.201 0 01-3.692 5.525 8.375 8.375 0 00-5.665 5.665 5.199 5.199 0 01-5.525 3.691 8.375 8.375 0 00-7.4 3.066 5.202 5.202 0 01-6.519 1.297A8.39 8.39 0 0041 77.149c-1.376 0-2.752.34-4.005 1.02a5.201 5.201 0 01-6.518-1.297 8.374 8.374 0 00-7.401-3.065 5.201 5.201 0 01-5.526-3.692 8.375 8.375 0 00-5.664-5.665 5.202 5.202 0 01-3.692-5.525 8.375 8.375 0 00-3.066-7.401 5.201 5.201 0 01-1.296-6.518 8.375 8.375 0 000-8.011 5.201 5.201 0 011.296-6.518 8.375 8.375 0 003.066-7.4 5.202 5.202 0 013.692-5.526 8.374 8.374 0 005.664-5.665 5.2 5.2 0 015.526-3.692 8.374 8.374 0 007.4-3.065 5.202 5.202 0 016.518-1.297 8.374 8.374 0 008.011 0 5.201 5.201 0 016.518 1.296 8.373 8.373 0 007.401 3.066 5.202 5.202 0 015.525 3.692 8.374 8.374 0 005.665 5.664 5.202 5.202 0 013.692 5.526 8.375 8.375 0 003.065 7.4 5.201 5.201 0 011.297 6.519 8.376 8.376 0 000 8.01z"/><path d="M56.313 12.493C50.316 9.269 43.28 8.015 36.503 8.96c-7.008.978-13.363 4.147-18.38 9.163-4.77 4.77-7.887 10.794-9.014 17.421a32.275 32.275 0 002.5 18.996 1.602 1.602 0 102.909-1.34c-5.082-11.033-2.723-24.22 5.87-32.812 9.027-9.027 23.176-11.114 34.408-5.075a1.602 1.602 0 001.517-2.821zM20.456 61.68l-.068-.069a1.602 1.602 0 00-2.265 2.266l.069.067a1.596 1.596 0 002.265 0 1.602 1.602 0 000-2.265zm48.936-36.205a1.602 1.602 0 00-2.81 1.538c6.171 11.273 4.127 25.5-4.97 34.598-8.568 8.568-21.27 10.953-32.357 6.076a1.601 1.601 0 00-1.29 2.932 32.248 32.248 0 0013.005 2.738 32.7 32.7 0 005.754-.512 32.16 32.16 0 0017.152-8.968c5.047-5.047 8.221-11.443 9.18-18.497.927-6.825-.374-13.894-3.663-19.905zm-5.474-7.309l-.042-.042a1.602 1.602 0 00-2.265 2.265l.042.042c.313.313.723.469 1.133.469a1.602 1.602 0 001.132-2.734z"/><path d="M61.34 42.602a4.49 4.49 0 00-2.642-4.087 4.46 4.46 0 00.328-1.679 4.49 4.49 0 00-4.485-4.484h-6.964l.457-1.358a8.229 8.229 0 00-.486-6.445 8.229 8.229 0 00-4.962-4.14 1.602 1.602 0 00-1.972.988l-2.452 6.775a7.643 7.643 0 01-3.534 4.115l-1.947 1.06a3.59 3.59 0 00-2.483-.995h-6.896a3.608 3.608 0 00-3.603 3.603v19.059a3.608 3.608 0 003.603 3.603h6.896c1.102 0 2.09-.497 2.751-1.28l.732.288c1.68.658 3.447.993 5.251.993h13.6a4.49 4.49 0 004.484-4.485c0-.604-.121-1.18-.339-1.707a4.49 4.49 0 002.58-4.058c0-.63-.131-1.228-.366-1.772a4.49 4.49 0 002.449-3.994zM30.598 55.014a.4.4 0 01-.4.4h-6.896a.4.4 0 01-.4-.4V35.955c0-.22.18-.4.4-.4h6.896a.4.4 0 01.365.237c.009.042.02.084.032.126l.003.037v19.059zm26.257-11.13h-7.207a1.602 1.602 0 000 3.202h5.124a1.283 1.283 0 010 2.563h-5.124a1.602 1.602 0 000 3.203h2.883c.706 0 1.281.575 1.281 1.281 0 .707-.575 1.281-1.281 1.281H38.932c-1.403 0-2.776-.26-4.082-.771l-1.049-.412V36.385L36.16 35.1a10.843 10.843 0 005.016-5.838l1.857-5.134a5.063 5.063 0 011.669 1.887A5.052 5.052 0 0145 29.971l-1.17 3.471a1.602 1.602 0 001.518 2.113h9.194c.707 0 1.282.575 1.282 1.281 0 .707-.575 1.281-1.282 1.281h-4.893a1.602 1.602 0 000 3.204h7.207c.707 0 1.282.574 1.282 1.28 0 .707-.575 1.282-1.282 1.282z"/></g><defs><clipPath id="clip0_5502_4101"><path fill="#fff" d="M0 0h82v82H0z"/></clipPath></defs></svg>